<svg width="30" height="29" viewBox="0 0 30 29" fill="none" xmlns="http://www.w3.org/2000/svg">
<mask id="mask0_261_365" style="mask-type:luminance" maskUnits="userSpaceOnUse" x="0" y="0" width="30" height="29">
<rect x="0.5" width="29" height="29" fill="white"/>
</mask>
<g mask="url(#mask0_261_365)">
<path fill-rule="evenodd" clip-rule="evenodd" d="M19.4811 5.85821C19.1549 5.66568 18.8168 5.49147 18.4682 5.337L17.9588 2.98288C17.8346 2.40902 17.3319 2 16.7508 2H12.2494C11.6683 2 11.1656 2.40903 11.0414 2.98288L10.532 5.337C10.2035 5.48258 9.88432 5.64568 9.57562 5.82514C9.25156 6.01271 8.93707 6.21939 8.63396 6.44469L6.36243 5.71361C5.80871 5.53539 5.20694 5.77097 4.91639 6.27969L2.66571 10.2203C2.37516 10.7291 2.47422 11.3737 2.90376 11.7693L4.66586 13.3923C4.62536 13.7615 4.60551 14.1313 4.60585 14.5C4.60551 14.8687 4.62536 15.2385 4.66586 15.6077L2.90376 17.2307C2.47422 17.6264 2.37516 18.271 2.66571 18.7797L4.91639 22.7203C5.20694 23.2291 5.80871 23.4646 6.36243 23.2864L8.63396 22.5553C8.94043 22.7831 9.25854 22.9919 9.5864 23.1811C9.89175 23.3581 10.2073 23.5191 10.532 23.663L11.0414 26.0171C11.1656 26.591 11.6683 27 12.2494 27H16.7508C17.3319 27 17.8346 26.591 17.9588 26.0171L18.4682 23.663C18.8128 23.5103 19.1472 23.3383 19.4699 23.1484C19.7779 22.9679 20.0772 22.7701 20.366 22.5553L22.6376 23.2864C23.1913 23.4646 23.7931 23.2291 24.0836 22.7203L26.3343 18.7797C26.6248 18.271 26.5258 17.6264 26.0962 17.2307L24.3341 15.6077C24.3747 15.2381 24.3945 14.8678 24.3942 14.4986C24.3944 14.1304 24.3746 13.761 24.3341 13.3923L26.0962 11.7693C26.5258 11.3737 26.6248 10.7291 26.3343 10.2203L24.0836 6.27969C23.7931 5.77097 23.1913 5.53539 22.6376 5.71361L20.366 6.44469C20.0806 6.23255 19.7851 6.03692 19.4811 5.85821C19.4811 5.85821 19.1549 5.66568 19.4811 5.85821ZM14.5 19.5C17.2318 19.5 19.4463 17.2614 19.4463 14.5C19.4463 11.7386 17.2318 9.5 14.5 9.5C11.7683 9.5 9.55378 11.7386 9.55378 14.5C9.55378 17.2614 11.7683 19.5 14.5 19.5C17.2318 19.5 14.5 19.5 14.5 19.5Z" fill="url(#paint0_linear_261_365)"/>
</g>
<defs>
<linearGradient id="paint0_linear_261_365" x1="43.9148" y1="23.4027" x2="21.7403" y2="-2.42953" gradientUnits="userSpaceOnUse">
<stop stop-color="white"/>
<stop offset="1" stop-color="#00BAC7"/>
</linearGradient>
</defs>
</svg>
