<svg width="27" height="24" viewBox="0 0 27 24" fill="none" xmlns="http://www.w3.org/2000/svg">
<ellipse cx="15.3018" cy="12.375" rx="8.82959" ry="8.625" fill="white"/>
<path fill-rule="evenodd" clip-rule="evenodd" d="M13.6966 1C7.19482 1 1.92383 5.925 1.92383 12C1.92383 18.075 7.19482 23 13.6966 23C20.1984 23 25.4694 18.075 25.4694 12C25.4694 5.925 20.1984 1 13.6966 1ZM18.7996 10.14C18.8935 10.0396 18.9651 9.92274 19.01 9.79617C19.0549 9.6696 19.0722 9.53591 19.061 9.40298C19.0498 9.27005 19.0102 9.14056 18.9447 9.02213C18.8791 8.90369 18.7889 8.79871 18.6792 8.71334C18.5696 8.62798 18.4428 8.56396 18.3063 8.52506C18.1698 8.48616 18.0263 8.47316 17.8844 8.48683C17.7424 8.50049 17.6048 8.54055 17.4797 8.60463C17.3545 8.66872 17.2444 8.75554 17.1557 8.86L12.5536 14.019L10.1723 11.793C9.97041 11.6108 9.70006 11.51 9.41945 11.5123C9.13883 11.5146 8.8704 11.6198 8.67196 11.8052C8.47353 11.9906 8.36097 12.2414 8.35853 12.5036C8.3561 12.7658 8.46397 13.0184 8.65893 13.207L11.8697 16.207C11.9748 16.3052 12.1007 16.3818 12.2394 16.4321C12.378 16.4823 12.5263 16.505 12.6748 16.4986C12.8233 16.4923 12.9688 16.4572 13.102 16.3954C13.2352 16.3337 13.3531 16.2467 13.4483 16.14L18.7996 10.14Z" fill="#95B8FF"/>
</svg>
