<svg width="24" height="24" viewBox="0 0 24 24" fill="none" xmlns="http://www.w3.org/2000/svg">
<path d="M18.988 2.0134L21.988 5.01298L19.701 7.30065L16.701 4.30108L18.988 2.0134ZM8 15.9994H11L18.287 8.71345L15.287 5.71388L8 12.9999V15.9994Z" fill="#00BAC7"/>
<path d="M19 18.999H8.158C8.132 18.999 8.105 19.009 8.079 19.009C8.046 19.009 8.013 19 7.979 18.999H5V5.00097H11.847L13.847 3.00125H5C3.897 3.00125 3 3.89713 3 5.00097V18.999C3 20.1028 3.897 20.9987 5 20.9987H19C19.5304 20.9987 20.0391 20.788 20.4142 20.413C20.7893 20.038 21 19.5294 21 18.999V10.3322L19 12.3319V18.999Z" fill="#00BAC7"/>
</svg>
