<svg width="8" height="15" viewBox="0 0 8 15" fill="none" xmlns="http://www.w3.org/2000/svg">
<path d="M1.33333 0.833252C0.6 0.833252 0 1.43325 0 2.16659V4.27992C0 4.63325 0.14 4.97325 0.393333 5.22659L2.66667 7.49992L0.386667 9.77992C0.14 10.0333 0 10.3733 0 10.7266V12.8333C0 13.5666 0.6 14.1666 1.33333 14.1666H6.66667C7.4 14.1666 8 13.5666 8 12.8333V10.7266C8 10.3733 7.86 10.0333 7.61333 9.78659L5.33333 7.49992L7.60667 5.23325C7.86 4.97992 8 4.63992 8 4.28659V2.16659C8 1.43325 7.4 0.833252 6.66667 0.833252H1.33333ZM6.66667 10.4999V12.1666C6.66667 12.5333 6.36667 12.8333 6 12.8333H2C1.63333 12.8333 1.33333 12.5333 1.33333 12.1666V10.4999L4 7.83325L6.66667 10.4999ZM4 7.16659L1.33333 4.49992V2.83325C1.33333 2.46659 1.63333 2.16659 2 2.16659H6C6.36667 2.16659 6.66667 2.46659 6.66667 2.83325V4.49992L4 7.16659Z" fill="#FF9921"/>
</svg>
