<svg width="16" height="17" viewBox="0 0 16 17" fill="none" xmlns="http://www.w3.org/2000/svg">
<rect width="16" height="16" transform="translate(0 0.5)" fill="#D6F4F6"/>
<path d="M14.3733 7.65988L13.4667 6.60654C13.2933 6.40654 13.1533 6.03321 13.1533 5.76654V4.63321C13.1533 3.92654 12.5733 3.34654 11.8667 3.34654H10.7333C10.4733 3.34654 10.0933 3.20654 9.89333 3.03321L8.84 2.12654C8.38 1.73321 7.62667 1.73321 7.16 2.12654L6.11333 3.03988C5.91333 3.20654 5.53333 3.34654 5.27333 3.34654H4.12C3.41333 3.34654 2.83333 3.92654 2.83333 4.63321V5.77321C2.83333 6.03321 2.69333 6.40654 2.52667 6.60654L1.62667 7.66654C1.24 8.12654 1.24 8.87321 1.62667 9.33321L2.52667 10.3932C2.69333 10.5932 2.83333 10.9665 2.83333 11.2265V12.3665C2.83333 13.0732 3.41333 13.6532 4.12 13.6532H5.27333C5.53333 13.6532 5.91333 13.7932 6.11333 13.9665L7.16667 14.8732C7.62667 15.2665 8.38 15.2665 8.84667 14.8732L9.9 13.9665C10.1 13.7932 10.4733 13.6532 10.74 13.6532H11.8733C12.58 13.6532 13.16 13.0732 13.16 12.3665V11.2332C13.16 10.9732 13.3 10.5932 13.4733 10.3932L14.38 9.33988C14.7667 8.87988 14.7667 8.11988 14.3733 7.65988ZM10.7733 7.23988L7.55333 10.4599C7.46 10.5532 7.33333 10.6065 7.2 10.6065C7.06667 10.6065 6.94 10.5532 6.84667 10.4599L5.23333 8.84654C5.04 8.65321 5.04 8.33321 5.23333 8.13988C5.42667 7.94654 5.74667 7.94654 5.94 8.13988L7.2 9.39988L10.0667 6.53321C10.26 6.33988 10.58 6.33988 10.7733 6.53321C10.9667 6.72654 10.9667 7.04654 10.7733 7.23988Z" fill="url(#paint0_linear_53_9527)"/>
<defs>
<linearGradient id="paint0_linear_53_9527" x1="8.00267" y1="1.83188" x2="8.00267" y2="15.1685" gradientUnits="userSpaceOnUse">
<stop stop-color="#138BD7"/>
<stop offset="1" stop-color="#62AAFB"/>
</linearGradient>
</defs>
</svg>
