<svg width="17" height="16" viewBox="0 0 17 16" fill="none" xmlns="http://www.w3.org/2000/svg">
<path d="M8.50001 1.3335C4.82001 1.3335 1.83334 4.32016 1.83334 8.00016C1.83334 11.6802 4.82001 14.6668 8.50001 14.6668C12.18 14.6668 15.1667 11.6802 15.1667 8.00016C15.1667 4.32016 12.18 1.3335 8.50001 1.3335ZM6.69334 10.8602L4.30001 8.46683C4.04001 8.20683 4.04001 7.78683 4.30001 7.52683C4.56001 7.26683 4.98001 7.26683 5.24001 7.52683L7.16668 9.44683L11.7533 4.86016C12.0133 4.60016 12.4333 4.60016 12.6933 4.86016C12.9533 5.12016 12.9533 5.54016 12.6933 5.80016L7.63334 10.8602C7.38001 11.1202 6.95334 11.1202 6.69334 10.8602Z" fill="#00A57D"/>
</svg>
