<svg width="16" height="16" viewBox="0 0 16 16" fill="none" xmlns="http://www.w3.org/2000/svg">
<path d="M7.99998 1.3335C4.31331 1.3335 1.33331 4.3135 1.33331 8.00016C1.33331 11.6868 4.31331 14.6668 7.99998 14.6668C11.6866 14.6668 14.6666 11.6868 14.6666 8.00016C14.6666 4.3135 11.6866 1.3335 7.99998 1.3335ZM10.8666 10.8668C10.6066 11.1268 10.1866 11.1268 9.92665 10.8668L7.99998 8.94016L6.07331 10.8668C5.81331 11.1268 5.39331 11.1268 5.13331 10.8668C4.87331 10.6068 4.87331 10.1868 5.13331 9.92683L7.05998 8.00016L5.13331 6.0735C4.87331 5.8135 4.87331 5.3935 5.13331 5.1335C5.39331 4.8735 5.81331 4.8735 6.07331 5.1335L7.99998 7.06016L9.92665 5.1335C10.1866 4.8735 10.6066 4.8735 10.8666 5.1335C11.1266 5.3935 11.1266 5.8135 10.8666 6.0735L8.93998 8.00016L10.8666 9.92683C11.12 10.1802 11.12 10.6068 10.8666 10.8668Z" fill="#FF0F00"/>
</svg>
