<svg width="24" height="25" viewBox="0 0 24 25" fill="none" xmlns="http://www.w3.org/2000/svg">
<path d="M20 4.70831H4C2.9 4.70831 2.01 5.60831 2.01 6.70831L2 18.7083C2 19.8083 2.9 20.7083 4 20.7083H20C21.1 20.7083 22 19.8083 22 18.7083V6.70831C22 5.60831 21.1 4.70831 20 4.70831ZM19 18.7083H5C4.45 18.7083 4 18.2583 4 17.7083V8.70831L10.94 13.0483C11.59 13.4583 12.41 13.4583 13.06 13.0483L20 8.70831V17.7083C20 18.2583 19.55 18.7083 19 18.7083ZM12 11.7083L4 6.70831H20L12 11.7083Z" fill="#9FA9B5" fill-opacity="0.54"/>
</svg>
