<svg width="28" height="28" viewBox="0 0 28 28" fill="none" xmlns="http://www.w3.org/2000/svg">
<g clip-path="url(#clip0_171_27329)">
<path d="M21.1482 26.4446C20.8045 26.4443 20.4687 26.3414 20.1838 26.149L14.3816 22.2602C14.353 22.2404 14.3191 22.2299 14.2843 22.2299C14.2496 22.2299 14.2157 22.2404 14.1871 22.2602L8.38489 26.149C8.09353 26.3436 7.74988 26.4449 7.39958 26.4395C7.04928 26.4342 6.7089 26.3223 6.42365 26.119C6.13839 25.9156 5.92175 25.6302 5.8025 25.3008C5.68325 24.9714 5.66704 24.6135 5.756 24.2746L7.66156 17.5546C7.67057 17.5208 7.66947 17.4851 7.65841 17.4519C7.64736 17.4188 7.62682 17.3896 7.59933 17.3679L2.10822 13.0513C1.81915 12.8359 1.60473 12.5355 1.49501 12.1921C1.38529 11.8488 1.38579 11.4797 1.49643 11.1366C1.60707 10.7936 1.8223 10.4937 2.11195 10.2792C2.4016 10.0646 2.75114 9.94604 3.11156 9.94016L10.1116 9.67571C10.146 9.67334 10.179 9.66106 10.2066 9.64036C10.2342 9.61966 10.2552 9.59142 10.2671 9.55905L12.6782 3.00238C12.7998 2.66999 13.0205 2.38297 13.3106 2.18019C13.6006 1.97741 13.946 1.86865 14.2999 1.86865C14.6538 1.86865 14.9992 1.97741 15.2892 2.18019C15.5793 2.38297 15.8 2.66999 15.9216 3.00238L18.3327 9.55905C18.3446 9.59142 18.3656 9.61966 18.3932 9.64036C18.4208 9.66106 18.4538 9.67334 18.4882 9.67571L25.4882 9.94016C25.8486 9.94604 26.1982 10.0646 26.4878 10.2792C26.7775 10.4937 26.9927 10.7936 27.1033 11.1366C27.214 11.4797 27.2145 11.8488 27.1048 12.1921C26.9951 12.5355 26.7806 12.8359 26.4916 13.0513L21.0004 17.3679C20.9721 17.3889 20.951 17.418 20.9398 17.4514C20.9287 17.4848 20.9281 17.5209 20.9382 17.5546L22.8438 24.2746C22.9107 24.5324 22.9173 24.8021 22.8632 25.0628C22.809 25.3235 22.6956 25.5683 22.5316 25.7781C22.3677 25.988 22.1576 26.1572 21.9177 26.2728C21.6778 26.3884 21.4145 26.4472 21.1482 26.4446ZM14.2882 20.6735C14.6326 20.684 14.966 20.7978 15.2449 21.0002L21.0471 24.889C21.0765 24.9114 21.1124 24.9236 21.1493 24.9239C21.1862 24.9242 21.2223 24.9126 21.252 24.8907C21.2818 24.8688 21.3037 24.8379 21.3144 24.8025C21.3251 24.7672 21.3241 24.7293 21.3116 24.6946L19.406 17.9746C19.3122 17.645 19.3191 17.2948 19.4259 16.9691C19.5326 16.6434 19.7342 16.3571 20.0049 16.1468L25.496 11.8302C25.526 11.8091 25.5484 11.779 25.56 11.7443C25.5716 11.7096 25.5717 11.6721 25.5604 11.6372C25.5491 11.6024 25.5269 11.5722 25.4971 11.5509C25.4673 11.5296 25.4315 11.5185 25.3949 11.519L18.3949 11.2546C18.0521 11.2412 17.7211 11.1261 17.4441 10.9239C17.167 10.7216 16.9565 10.4414 16.8393 10.119L14.4282 3.56238C14.4174 3.52757 14.3956 3.49714 14.3663 3.47553C14.3369 3.45393 14.3014 3.44227 14.2649 3.44227C14.2284 3.44227 14.1929 3.45393 14.1635 3.47553C14.1341 3.49714 14.1124 3.52757 14.1016 3.56238L11.7138 10.1113C11.5966 10.4337 11.3861 10.7138 11.109 10.9161C10.832 11.1183 10.501 11.2335 10.1582 11.2468L3.15822 11.5113C3.12162 11.5107 3.0858 11.5218 3.05601 11.5431C3.02622 11.5644 3.00404 11.5947 2.99273 11.6295C2.98142 11.6643 2.98156 11.7018 2.99315 11.7365C3.00474 11.7712 3.02716 11.8013 3.05711 11.8224L8.556 16.1468C8.82584 16.3577 9.02687 16.6441 9.13351 16.9696C9.24015 17.2951 9.24759 17.6449 9.15489 17.9746L7.25711 24.6946C7.24579 24.7283 7.24573 24.7647 7.25696 24.7984C7.26819 24.832 7.29008 24.8611 7.31933 24.8813C7.34751 24.9054 7.38337 24.9186 7.42044 24.9186C7.45752 24.9186 7.49338 24.9054 7.52156 24.8813L13.3238 20.9924C13.6073 20.8043 13.9402 20.7042 14.2804 20.7046L14.2882 20.6735Z" fill="#BCBCBC"/>
</g>
<defs>
<clipPath id="clip0_171_27329">
<rect width="28" height="28" fill="white"/>
</clipPath>
</defs>
</svg>
