<svg width="12" height="14" viewBox="0 0 12 14" fill="none" xmlns="http://www.w3.org/2000/svg">
<path fill-rule="evenodd" clip-rule="evenodd" d="M0 2C6.77215e-06 2.07651 0.0125045 2.15251 0.037 2.225L1.721 12.329C1.88183 13.2934 2.71631 14.0001 3.694 14H8.305C9.28307 14.0006 10.1181 13.2937 10.279 12.329L11.963 2.225C11.9875 2.15252 12 2.07652 12 2C12 0.895 9.314 0 6 0C2.686 0 0 0.895 0 2ZM6 1C7.578 1 8.966 1.214 9.927 1.535L9.926 1.534C10.403 1.693 10.721 1.86 10.901 2C10.721 2.139 10.403 2.306 9.926 2.466C8.967 2.785 7.58 3 6 3C4.42 3 3.032 2.786 2.074 2.466C1.597 2.307 1.279 2.14 1.099 2C1.279 1.861 1.597 1.694 2.074 1.534C3.032 1.215 4.42 1 6 1Z" fill="url(#paint0_linear_117_7861)"/>
<defs>
<linearGradient id="paint0_linear_117_7861" x1="0" y1="0" x2="0" y2="14" gradientUnits="userSpaceOnUse">
<stop stop-color="#BBC4D0"/>
<stop offset="1" stop-color="#8592A3"/>
</linearGradient>
</defs>
</svg>
