<svg width="28" height="29" viewBox="0 0 28 29" fill="none" xmlns="http://www.w3.org/2000/svg">
<g clip-path="url(#clip0_171_27311)">
<path d="M26.4446 13.5509C26.7337 13.3355 26.9481 13.0351 27.0579 12.6918C27.1676 12.3484 27.1671 11.9793 27.0564 11.6362C26.9458 11.2932 26.7306 10.9933 26.4409 10.7788C26.1513 10.5642 25.8017 10.4457 25.4413 10.4398L18.4413 10.1753C18.4069 10.173 18.3739 10.1607 18.3463 10.14C18.3187 10.1193 18.2977 10.091 18.2858 10.0587L15.8669 3.52533C15.7453 3.19294 15.5246 2.90592 15.2345 2.70314C14.9445 2.50036 14.5991 2.3916 14.2452 2.3916C13.8913 2.3916 13.5459 2.50036 13.2559 2.70314C12.9658 2.90592 12.7451 3.19294 12.6235 3.52533L10.2124 10.082C10.2005 10.1144 10.1795 10.1426 10.1519 10.1633C10.1243 10.184 10.0913 10.1963 10.0569 10.1987L3.05687 10.4631C2.69645 10.469 2.34691 10.5875 2.05726 10.8021C1.76762 11.0167 1.55238 11.3165 1.44174 11.6596C1.3311 12.0026 1.33061 12.3717 1.44032 12.7151C1.55004 13.0585 1.76447 13.3589 2.05354 13.5742L7.54465 17.8909C7.57213 17.9125 7.59267 17.9417 7.60373 17.9749C7.61479 18.0081 7.61588 18.0438 7.60687 18.0776L5.71687 24.7742C5.61893 25.1152 5.62842 25.4781 5.74404 25.8136C5.85967 26.149 6.07582 26.4407 6.36308 26.6489C6.65035 26.8571 6.99479 26.9718 7.34954 26.9773C7.7043 26.9828 8.05214 26.8789 8.34576 26.6798L14.148 22.7909C14.1766 22.7712 14.2105 22.7606 14.2452 22.7606C14.2799 22.7606 14.3138 22.7712 14.3424 22.7909L20.1446 26.6798C20.4343 26.8858 20.7809 26.9964 21.1363 26.9964C21.4917 26.9964 21.8383 26.8858 22.128 26.6798C22.4153 26.4735 22.6317 26.1833 22.7473 25.849C22.8629 25.5147 22.8721 25.1528 22.7735 24.8131L20.868 18.0931C20.8579 18.0594 20.8584 18.0233 20.8696 17.9899C20.8807 17.9565 20.9019 17.9274 20.9302 17.9064L26.4446 13.5509Z" fill="url(#paint0_linear_171_27311)"/>
</g>
<defs>
<linearGradient id="paint0_linear_171_27311" x1="-2.9385" y1="9.527" x2="19.5739" y2="1.80557" gradientUnits="userSpaceOnUse">
<stop stop-color="#FD8A02"/>
<stop offset="1" stop-color="#E6A000"/>
</linearGradient>
<clipPath id="clip0_171_27311">
<rect width="28" height="28" fill="white" transform="translate(0 0.5)"/>
</clipPath>
</defs>
</svg>
