<svg width="16" height="15" viewBox="0 0 16 15" fill="none" xmlns="http://www.w3.org/2000/svg">
<path fill-rule="evenodd" clip-rule="evenodd" d="M1.472 14.9623C1.71037 14.9233 1.94807 14.8803 2.185 14.8333C4.014 14.4703 5.133 13.9913 5.653 13.7283C6.41859 13.9325 7.20765 14.0354 8 14.0343C12.418 14.0343 16 10.9003 16 7.0343C16 3.1683 12.418 0.0343018 8 0.0343018C3.582 0.0343018 0 3.1683 0 7.0343C0 8.7943 0.743 10.4043 1.97 11.6343C1.896 12.4053 1.694 13.2333 1.446 13.9533L1.443 13.9633C1.36918 14.1784 1.28779 14.3909 1.199 14.6003C1.12 14.7863 1.272 14.9943 1.472 14.9623ZM2.965 11.7293C2.99336 11.4329 2.88815 11.1393 2.678 10.9283C1.617 9.8643 1 8.5023 1 7.0343C1 3.8423 4.004 1.0343 8 1.0343C11.996 1.0343 15 3.8423 15 7.0343C15 10.2273 11.996 13.0343 8 13.0343C7.29477 13.0354 6.59243 12.944 5.911 12.7623C5.67329 12.6988 5.4205 12.7251 5.201 12.8363C4.814 13.0323 3.962 13.4063 2.567 13.7293C2.76148 13.0764 2.89472 12.4069 2.965 11.7293Z" fill="white"/>
<path fill-rule="evenodd" clip-rule="evenodd" d="M4 4.5343C4 4.25816 4.22386 4.0343 4.5 4.0343H11.5C11.7761 4.0343 12 4.25816 12 4.5343C12 4.81044 11.7761 5.0343 11.5 5.0343H4.5C4.22386 5.0343 4 4.81044 4 4.5343ZM4 7.0343C4 6.75816 4.22386 6.5343 4.5 6.5343H11.5C11.7761 6.5343 12 6.75816 12 7.0343C12 7.31044 11.7761 7.5343 11.5 7.5343H4.5C4.22386 7.5343 4 7.31044 4 7.0343ZM4.5 9.0343C4.22386 9.0343 4 9.25816 4 9.5343C4 9.81044 4.22386 10.0343 4.5 10.0343H8.5C8.77614 10.0343 9 9.81044 9 9.5343C9 9.25816 8.77614 9.0343 8.5 9.0343H4.5Z" fill="white"/>
</svg>
