<svg width="17" height="16" viewBox="0 0 17 16" fill="none" xmlns="http://www.w3.org/2000/svg">
<path fill-rule="evenodd" clip-rule="evenodd" d="M8.24 16C12.6583 16 16.24 12.4183 16.24 8C16.24 3.58172 12.6583 0 8.24 0C3.82172 0 0.240002 3.58172 0.240002 8C0.240002 12.4183 3.82172 16 8.24 16ZM7.74 3C8.01614 3 8.24 3.22386 8.24 3.5V8.71L11.488 10.566C11.7205 10.7063 11.7986 11.0064 11.6638 11.2422C11.5291 11.478 11.2309 11.5631 10.992 11.434L7.492 9.434C7.33623 9.34502 7.24006 9.1794 7.24 9V3.5C7.24 3.22386 7.46386 3 7.74 3Z" fill="white"/>
</svg>
