<svg width="81" height="81" viewBox="0 0 81 81" fill="none" xmlns="http://www.w3.org/2000/svg">
<path d="M40.5 3.83333C36.0798 3.83333 31.8405 5.58928 28.7149 8.71488C25.5893 11.8405 23.8334 16.0797 23.8334 20.5V27.1667H20.5C18.7319 27.1667 17.0362 27.869 15.786 29.1193C14.5358 30.3695 13.8334 32.0652 13.8334 33.8333V67.1667C13.8334 68.9348 14.5358 70.6305 15.786 71.8807C17.0362 73.1309 18.7319 73.8333 20.5 73.8333H60.5C62.2682 73.8333 63.9638 73.1309 65.2141 71.8807C66.4643 70.6305 67.1667 68.9348 67.1667 67.1667V33.8333C67.1667 32.0652 66.4643 30.3695 65.2141 29.1193C63.9638 27.869 62.2682 27.1667 60.5 27.1667H57.1667V20.5C57.1667 18.3113 56.7356 16.144 55.898 14.1219C55.0605 12.0998 53.8328 10.2625 52.2852 8.71488C50.7375 7.16724 48.9002 5.93958 46.8781 5.102C44.856 4.26442 42.6887 3.83333 40.5 3.83333ZM40.5 10.1667C46.2 10.1667 50.8334 14.8 50.8334 20.5V27.1667H30.1667V20.5C30.1667 14.8 34.8 10.1667 40.5 10.1667ZM41.1334 35.5C44.2667 35.5 46.7667 36.2 48.5667 37.5667C50.3667 38.9667 51.2667 40.8333 51.2667 43.1667C51.2667 44.6333 50.7667 45.9333 49.8 47.1667C48.8334 48.3667 47.5667 49.3 46.0334 50C45.1667 50.5 44.6 51 44.3 51.5667C44 52.1667 43.8334 52.9 43.8334 53.8333H37.1667C37.1667 52.1667 37.5 51.0333 38.1334 50.2333C38.8334 49.4333 39.9667 48.5 41.7 47.4333C42.5667 46.9667 43.2667 46.3667 43.8334 45.6333C44.3 44.9333 44.5667 44.1 44.5667 43.1667C44.5667 42.1667 44.2667 41.4333 43.6667 40.8667C43.0667 40.2667 42.1667 40 41.1334 40C40.2334 40 39.5 40.2333 38.8334 40.7C38.3 41.1667 37.9667 41.8667 37.9667 42.8H31.4C31.2334 40.5 32.1667 38.5 34 37.3C35.8 36.1 38.1667 35.5 41.1334 35.5ZM37.1667 57.1667H43.8334V63.8333H37.1667V57.1667Z" fill="white"/>
</svg>
