<svg width="12" height="6" viewBox="0 0 12 6" fill="none" xmlns="http://www.w3.org/2000/svg">
<path fill-rule="evenodd" clip-rule="evenodd" d="M4.83334 5.91671H3.08334C1.47251 5.91671 0.166672 4.61087 0.166672 3.00004C0.166672 1.38921 1.47251 0.083374 3.08334 0.083374H4.83334V1.25004H3.08334C2.11684 1.25004 1.33334 2.03354 1.33334 3.00004C1.33334 3.96654 2.11684 4.75004 3.08334 4.75004H4.83334V5.91671ZM7.16667 0.083374H8.91667C10.5275 0.083374 11.8333 1.38921 11.8333 3.00004C11.8333 4.61087 10.5275 5.91671 8.91667 5.91671H7.16667V4.75004H8.91667C9.88317 4.75004 10.6667 3.96654 10.6667 3.00004C10.6667 2.03354 9.88317 1.25004 8.91667 1.25004H7.16667V0.083374ZM3.08334 2.41671V3.58337H8.91667V2.41671H3.08334Z" fill="#0E2338"/>
</svg>
