<svg width="28" height="29" viewBox="0 0 28 29" fill="none" xmlns="http://www.w3.org/2000/svg">
<path d="M16.625 23.25C16.625 23.9462 16.3484 24.6139 15.8562 25.1062C15.3639 25.5984 14.6962 25.875 14 25.875C13.3038 25.875 12.6361 25.5984 12.1438 25.1062C11.6516 24.6139 11.375 23.9462 11.375 23.25C11.375 22.5538 11.6516 21.8861 12.1438 21.3938C12.6361 20.9016 13.3038 20.625 14 20.625C14.6962 20.625 15.3639 20.9016 15.8562 21.3938C16.3484 21.8861 16.625 22.5538 16.625 23.25ZM16.625 14.5C16.625 15.1962 16.3484 15.8639 15.8562 16.3562C15.3639 16.8484 14.6962 17.125 14 17.125C13.3038 17.125 12.6361 16.8484 12.1438 16.3562C11.6516 15.8639 11.375 15.1962 11.375 14.5C11.375 13.8038 11.6516 13.1361 12.1438 12.6438C12.6361 12.1516 13.3038 11.875 14 11.875C14.6962 11.875 15.3639 12.1516 15.8562 12.6438C16.3484 13.1361 16.625 13.8038 16.625 14.5ZM16.625 5.75C16.625 6.44619 16.3484 7.11387 15.8562 7.60616C15.3639 8.09844 14.6962 8.375 14 8.375C13.3038 8.375 12.6361 8.09844 12.1438 7.60616C11.6516 7.11387 11.375 6.44619 11.375 5.75C11.375 5.05381 11.6516 4.38613 12.1438 3.89384C12.6361 3.40156 13.3038 3.125 14 3.125C14.6962 3.125 15.3639 3.40156 15.8562 3.89384C16.3484 4.38613 16.625 5.05381 16.625 5.75Z" fill="url(#paint0_linear_171_27320)"/>
<defs>
<linearGradient id="paint0_linear_171_27320" x1="11.375" y1="28.605" x2="16.4362" y2="28.1037" gradientUnits="userSpaceOnUse">
<stop stop-color="#4B5F87"/>
<stop offset="1" stop-color="#001A53"/>
</linearGradient>
</defs>
</svg>
