<svg width="14" height="14" viewBox="0 0 14 14" fill="none" xmlns="http://www.w3.org/2000/svg">
<g id="owner">
<mask id="mask0_117_7796" style="mask-type:luminance" maskUnits="userSpaceOnUse" x="0" y="0" width="14" height="14">
<rect id="owner_2" width="14" height="14" fill="white"/>
</mask>
<g mask="url(#mask0_117_7796)">
<path id="owner_3" fill-rule="evenodd" clip-rule="evenodd" d="M7 5.83341C6.32917 5.83341 5.83333 5.33875 5.83333 4.66675C5.83333 3.99475 6.32917 3.50008 7 3.50008C7.67142 3.50008 8.16667 3.99475 8.16667 4.66675C8.16667 5.33875 7.67142 5.83341 7 5.83341ZM7 6.41675C8.28858 6.41675 9.33333 7.35708 9.33333 8.51675V8.74191H4.66667V8.51675C4.66667 7.35708 5.71142 6.41675 7 6.41675ZM2.91667 1.16675H11.0833C11.7268 1.16675 12.25 1.69 12.25 2.33341V9.91675C12.25 10.5602 11.7268 11.0834 11.0833 11.0834H8.75L7 12.8334L5.25 11.0834H2.91667C2.27325 11.0834 1.75 10.5602 1.75 9.91675V2.33341C1.75 1.69 2.27325 1.16675 2.91667 1.16675ZM7 11.0834L8.16667 9.91675H11.0845L11.0833 2.33341H2.91667V9.91675H5.83333L7 11.0834Z" fill="#0E2338"/>
</g>
</g>
</svg>
