<svg width="24" height="24" viewBox="0 0 24 24" fill="none" xmlns="http://www.w3.org/2000/svg">
<path fill-rule="evenodd" clip-rule="evenodd" d="M4.4658 7.91444C4.4658 9.3453 5.50662 10.484 5.51792 10.4958L12.7977 18.7822C12.8209 18.8099 13.8915 20.0767 15.4057 20.2001C16.3145 20.2739 17.2293 19.9185 18.125 19.1435C18.5008 18.8395 19.4477 17.8826 19.528 16.9452C19.5619 16.5344 19.4293 16.1625 19.1182 15.8089L17.6051 14.0859C17.4089 13.9354 16.6922 13.4744 15.9583 14.1101C15.3825 14.6083 14.6837 15.0782 13.8683 14.7807C13.3068 14.5764 12.8661 14.0735 12.1976 13.3132L10.9457 11.8877C9.73533 10.5082 8.88662 9.54304 10.6257 8.03899C11.3697 7.39499 10.9736 6.59692 10.8743 6.42397L9.35945 4.70092C9.04839 4.34616 8.69511 4.16435 8.28056 4.1431C7.33431 4.09411 6.25066 4.89513 5.91284 5.20739C4.99989 5.99837 4.52052 6.84957 4.47056 7.75329C4.46758 7.8076 4.4658 7.86132 4.4658 7.91444ZM20.8424 16.8124C20.8424 16.8945 20.8383 16.9777 20.8317 17.0615C20.6836 18.7438 19.0355 20.082 18.966 20.1381C17.8086 21.1404 16.5631 21.6014 15.2838 21.4934C13.2129 21.3175 11.8539 19.6883 11.7968 19.6186L4.55087 11.3706C4.41289 11.2212 3.06517 9.69061 3.16331 7.69721C3.22933 6.42396 3.85917 5.26287 5.0356 4.24463C5.08258 4.19977 6.64263 2.76183 8.34244 2.84565C9.12097 2.88402 9.79543 3.22107 10.3456 3.84736L11.9532 5.68611C12.3749 6.33365 12.8186 7.86308 11.4851 9.01768C10.7328 9.66877 10.7334 9.66936 11.8931 10.9904L13.1469 12.4171C13.6613 13.0033 14.0729 13.472 14.3191 13.5617C14.4506 13.6095 14.7135 13.4649 15.0989 13.1308C16.4323 11.9762 17.8984 12.622 18.4872 13.1249L18.5544 13.1904L20.1043 14.9554C20.5944 15.5132 20.8424 16.1371 20.8424 16.8124Z" fill="#001A53"/>
<mask id="mask0_171_27284" style="mask-type:luminance" maskUnits="userSpaceOnUse" x="3" y="2" width="18" height="20">
<path fill-rule="evenodd" clip-rule="evenodd" d="M4.4658 7.91444C4.4658 9.3453 5.50662 10.484 5.51792 10.4958L12.7977 18.7822C12.8209 18.8099 13.8915 20.0767 15.4057 20.2001C16.3145 20.2739 17.2293 19.9185 18.125 19.1435C18.5008 18.8395 19.4477 17.8826 19.528 16.9452C19.5619 16.5344 19.4293 16.1625 19.1182 15.8089L17.6051 14.0859C17.4089 13.9354 16.6922 13.4744 15.9583 14.1101C15.3825 14.6083 14.6837 15.0782 13.8683 14.7807C13.3068 14.5764 12.8661 14.0735 12.1976 13.3132L10.9457 11.8877C9.73533 10.5082 8.88662 9.54304 10.6257 8.03899C11.3697 7.39499 10.9736 6.59692 10.8743 6.42397L9.35945 4.70092C9.04839 4.34616 8.69511 4.16435 8.28056 4.1431C7.33431 4.09411 6.25066 4.89513 5.91284 5.20739C4.99989 5.99837 4.52052 6.84957 4.47056 7.75329C4.46758 7.8076 4.4658 7.86132 4.4658 7.91444ZM20.8424 16.8124C20.8424 16.8945 20.8383 16.9777 20.8317 17.0615C20.6836 18.7438 19.0355 20.082 18.966 20.1381C17.8086 21.1404 16.5631 21.6014 15.2838 21.4934C13.2129 21.3175 11.8539 19.6883 11.7968 19.6186L4.55087 11.3706C4.41289 11.2212 3.06517 9.69061 3.16331 7.69721C3.22933 6.42396 3.85917 5.26287 5.0356 4.24463C5.08258 4.19977 6.64263 2.76183 8.34244 2.84565C9.12097 2.88402 9.79543 3.22107 10.3456 3.84736L11.9532 5.68611C12.3749 6.33365 12.8186 7.86308 11.4851 9.01768C10.7328 9.66877 10.7334 9.66936 11.8931 10.9904L13.1469 12.4171C13.6613 13.0033 14.0729 13.472 14.3191 13.5617C14.4506 13.6095 14.7135 13.4649 15.0989 13.1308C16.4323 11.9762 17.8984 12.622 18.4872 13.1249L18.5544 13.1904L20.1043 14.9554C20.5944 15.5132 20.8424 16.1371 20.8424 16.8124Z" fill="white"/>
</mask>
<g mask="url(#mask0_171_27284)">
</g>
</svg>
